/* XPM */
static char *_8dceb574a904cbc9ad8baaad3df8604hCkeOjCUKrmReJTN[] = {
/* columns rows colors chars-per-pixel */
"32 32 148 2 ",
"   c #3D3A37",
".  c #353538",
"X  c #3E3D3D",
"o  c #403E3A",
"O  c #43403B",
"+  c #3B3847",
"@  c #3F3D48",
"#  c #3A3745",
"$  c #403A53",
"%  c #444445",
"&  c #5D554E",
"*  c #4A4A50",
"=  c #5A4E52",
"-  c #57575D",
";  c #605857",
":  c #6A5E5F",
">  c #666056",
",  c #6D645D",
"<  c #756755",
"1  c #7D6957",
"2  c #7E725F",
"3  c #524F69",
"4  c #674168",
"5  c #6A456B",
"6  c #636367",
"7  c #736F69",
"8  c #676776",
"9  c #6B6B73",
"0  c #757577",
"q  c #9C3E7C",
"w  c #806E5A",
"e  c #8A755F",
"r  c #85486C",
"t  c #92517A",
"y  c #817560",
"u  c #857963",
"i  c #8D7E69",
"p  c #957D64",
"a  c #987F66",
"s  c #907666",
"d  c #8F7374",
"f  c #927973",
"g  c #8F806C",
"h  c #988066",
"j  c #91846C",
"k  c #9C866B",
"l  c #9E896D",
"z  c #968B76",
"x  c #9D8E72",
"c  c #9D927B",
"v  c #A18B6F",
"b  c #A28D71",
"n  c #A59274",
"m  c #A99275",
"M  c #A79579",
"N  c #AC967A",
"B  c #AD9B7B",
"V  c #B19E7E",
"C  c #B3A07F",
"Z  c #5D4E91",
"A  c #665898",
"S  c #6F549D",
"D  c #6A6482",
"F  c #746E8A",
"G  c #7B7596",
"H  c #7B769C",
"J  c #695AA4",
"K  c #6B5BAC",
"L  c #765BAA",
"P  c #6F60A2",
"I  c #7666BB",
"U  c #6F57C0",
"Y  c #7765C2",
"T  c #7C67CE",
"R  c #7D68D1",
"E  c #B53D8B",
"W  c #9C5B83",
"Q  c #B95299",
"!  c #996785",
"~  c #A86193",
"^  c #BE4AA9",
"/  c #867CA6",
"(  c #C452BB",
")  c #E144A6",
"_  c #E840A0",
"`  c #E74AA9",
"'  c #ED52AD",
"]  c #AD5ECD",
"[  c #BD56C1",
"{  c #B45AC7",
"}  c #846DDF",
"|  c #9669DE",
" . c #B96DD5",
".. c #856EE2",
"X. c #8F6CE2",
"o. c #906CE2",
"O. c #8871E8",
"+. c #8E78EA",
"@. c #937FEC",
"#. c #F672C4",
"$. c #F877C7",
"%. c #F37CCC",
"&. c #8D8C8F",
"*. c #8A8A91",
"=. c #8B8B98",
"-. c #919196",
";. c #94949A",
":. c #A88E8D",
">. c #AB9888",
",. c #B49D82",
"<. c #B5A281",
"1. c #BBA685",
"2. c #BDAA8A",
"3. c #B9A688",
"4. c #9191A0",
"5. c #9B9BA7",
"6. c #AAAAAB",
"7. c #ABABB3",
"8. c #B5B5BD",
"9. c #C0A787",
"0. c #C5AC8B",
"q. c #C3B08F",
"w. c #C8B08F",
"e. c #C6B594",
"r. c #CBB594",
"t. c #CDB897",
"y. c #CEBB9A",
"u. c #D0BE9D",
"i. c #D2C09F",
"p. c #D4C4A3",
"a. c #978BDA",
"s. c #A59EDC",
"d. c #BBBBC3",
"f. c #BEBEC8",
"g. c #A380E7",
"h. c #A597F2",
"j. c #ADA1F4",
"k. c #B1A7F6",
"l. c #B4ABF7",
"z. c #B8B0F8",
"x. c #D09BE6",
"c. c #D597E2",
"v. c #C1A8F1",
"b. c #C1C1CB",
"n. c #C7C7D0",
"m. c #CDCDD5",
"M. c #D0D0D8",
"N. c #E3E3E7",
/* pixels */
"0.<.<.0.0.0.1.B B e.u.0.0.<.<.0.0.0.0.0.0.0.1.V 0.0.0.0.V 1.0.0.",
"<.V V <.0.0.0.2.e.r.r.0.0.0.1.1.y.r.0.0.0.0.0.1.0.0.0.0.b B 1.0.",
"B C <.<.0.0.0.w.p.u.r.r.0.0.1.1.y.y.r.r.0.0.0.0.0.0.0.0.b b B 1.",
"B 1.0.w.0.0.0.0.u.p.p.u.0.<.<.0.0.u.p.p.r.0.0.0.0.0.0.0.C v l N ",
"B B 2.i.w.0.0.0.<.<.<.<.0.0.1.<.u.p.p.p.p.r.0.0.0.y.y.0.0.V b a ",
"k m 2.p.w.0.0.0.1.1.1.1.0.0.0.1.2.,.N ,.p.i.r.0.y.y.r.0.0.0.N p ",
"p l V e.r.r.0.0.0.0.0.0.0.n i i y < w b 3.r.r.w.p.r.r.r.0.r.1.k ",
"a a k B y.r.0.0.w.w.0.,.,., @ + + + ; l e m 0.r.p.t.r.i.0.y.e.V ",
"N k a h B e.y.w.i.p.c O O / a.R R R A X   < V p.p.p.y.0.C C 1.0.",
"k b l a k V e.u.p.:.! ~ / s.k.h.+.O.T S q r d 2.B N N b l m N b ",
"k m n p p l V e.>.W Q %.c.v.z.k.+.O.| { ) E t f k k k k k m m k ",
"B B n a p p k b 5 E ' #.$.x.l.j.+.O.] _ _ _ E 5 M V V <.B B B B ",
"B B B m a p a s 4 E _ ` #.x.h.+.O.O.] _ _ _ E 5 ,.0.r.y.<.B B B ",
"B B B N a p 1 = L ^ _ )  .g.@.O.O.O.| { ) _ ^ L : >.y.r.2.C C 1.",
"B B B N l k < + R ] ( [ X.O.O.O.O.O.O.o.[ ( ] R + z r.0.1.<.<.1.",
"B B V V B B 2 + Y ..O.O.O.O.} R R } O.O.O.O...Y # g w.0.<.2.1.V ",
"B 1.0.0.V B 2 . 3 I O.O.O.O.K + + K O.O.O.O.I 3 . z p.p.p.r.0.0.",
"1.0.0.<.1.C 2 X ;.H J U U Z F 6.;.D Z U U J H ;.X 2 N V r.y.r.0.",
"1.0.0.<.1.C j > &.*.G P Z $ 0 N.f.6 $ Z P G *.&.& 1 p h <.q.r.r.",
"<.2.0.0.C B N x o ;.d.4.8 * 9 8.=.- * 8 4.d.;.  e a a a m N 1.p.",
"p.r.0.0.0.m l x o ;.m.n.b.5.9 % X 9 5.b.n.m.;.X l N b p a a b <.",
"2.r.r.0.<.v h k y 7 -.M.M.b.7.;.;.7.b.M.M.-.7 u M B B N a p k B ",
"B 2.q.1.B b k l N 2 7 ;.;.d.M.M.M.M.d.;.;.7 y <.B C 1.0.b h h n ",
"N N N N N B B B B B u o o *.d.d.d.d.&.o o u <.0.C 1.0.0.V l a p ",
"a a a a a n B B B 1.<.n V , % % % % > x x M <.0.0.0.0.0.V N b p ",
"n n n n n N C 2.e.2.2.e.0.n j z g i x 1.B <.1.<.0.0.0.0.1.C N n ",
"<.V B B <.<.2.t.p.e.e.p.t.r.y.y.r.r.r.r.1.0.0.<.0.0.0.0.1.C B B ",
"0.<.B V 0.0.r.p.p.p.p.p.p.p.u.r.p.p.p.y.0.0.0.9.0.0.0.0.C B B B ",
"0.0.1.B V V V 3.p.p.p.p.p.p.p.p.p.t.0.<.0.<.m k B 1.0.0.0.<.B B ",
"0.0.0.1.B B B B 2.2.q.t.p.p.i.r.r.y.r.1.<.V n a k B 0.y.0.0.1.1.",
"0.0.1.1.<.<.C B B B C 2.e.i.u.0.1.q.q.1.<.V m k a l B 2.r.r.0.0.",
"0.<.B V 0.0.1.B B B B B B e.u.0.V B B V 0.<.B N a p p k y.r.0.0."
};
