/* XPM */
static char *a1712ec0ffb24560ef3587949b0cc99fCKgGc0hIzXFf5uj0[] = {
/* columns rows colors chars-per-pixel */
"32 32 113 2 ",
"   c #C6AD8C",
".  c #B6A281",
"X  c #BDA786",
"o  c #AD9C7B",
"O  c #C9B896",
"+  c #D9C59F",
"@  c #D1B993",
"#  c #EDD4A2",
"$  c #FFE7AD",
"%  c #B09857",
"&  c #EBD398",
"*  c #C6AD86",
"=  c #BCA683",
"-  c #B09E7D",
";  c #C3AB8A",
":  c #B19E7D",
">  c #B8A483",
",  c #C4AC8B",
"<  c #C2AB8A",
"1  c #BEA988",
"2  c #D8C59C",
"3  c #E8D1A2",
"4  c #BDA566",
"5  c #DEC689",
"6  c #C3AC7A",
"7  c #B39B6F",
"8  c #C5AC8B",
"9  c #C1A888",
"0  c #A28C70",
"q  c #AD9879",
"w  c #BCA685",
"e  c #B3A07F",
"r  c #D3BA93",
"t  c #DAC299",
"y  c #E9D195",
"u  c #B29A5A",
"i  c #9C8442",
"p  c #C8B072",
"a  c #D9C097",
"s  c #BDA47B",
"d  c #A18D70",
"f  c #BBA584",
"g  c #C5AD8C",
"h  c #C8B08F",
"j  c #F2DAA6",
"k  c #F4DCA1",
"l  c #A38D50",
"z  c #867134",
"x  c #A78F4E",
"c  c #B0985F",
"v  c #D4BC95",
"b  c #A08B6F",
"n  c #9E886D",
"m  c #AA9878",
"M  c #AF9D7C",
"N  c #BEAC8B",
"B  c #D2C09F",
"V  c #E0C89C",
"C  c #F9E1A9",
"Z  c #705D26",
"A  c #393012",
"S  c #1E1908",
"D  c #E3CC93",
"F  c #B39B6B",
"G  c #B39F7F",
"H  c #A38F71",
"J  c #977F66",
"K  c #9D876C",
"L  c #A79475",
"P  c #BCAC8B",
"I  c #DECBA4",
"U  c #F9E1AA",
"Y  c #55461C",
"T  c #0A0803",
"R  c black",
"E  c #8D7739",
"W  c #B79F62",
"Q  c #C0A988",
"!  c #AD9679",
"~  c #947B63",
"^  c #9E886C",
"/  c #C2AE89",
"(  c #F2DCA8",
")  c #141005",
"_  c #B0985E",
"`  c #C0A880",
"'  c #BAA586",
"]  c #957D64",
"[  c #9C855D",
"{  c #5A4A18",
"}  c #DDC89F",
"|  c #C5B493",
" . c #BDA681",
".. c #D0BB92",
"X. c #A18B6F",
"o. c #D5BF92",
"O. c #D3BB7D",
"+. c #DAC496",
"@. c #AA9174",
"#. c #B19A79",
"$. c #BDAB85",
"%. c #E5CF9D",
"&. c #EAD2A0",
"*. c #A8904F",
"=. c #BCA464",
"-. c #CFB77A",
";. c #A08846",
":. c #DBC386",
">. c #EFD79C",
",. c #F7DFA4",
"<. c #D7BF82",
"1. c #826D31",
"2. c #241E0A",
/* pixels */
"  . .       X o o O + @ # $ % & $ $ $ # @ * = - ;     ; - X     ",
". : : > ,   < 1 2 3 $ $ $ $ 4 5 $ $ $ $ $ 4 6 7 8     9 0 q w   ",
"o e . > ,   r t $ $ $ $ $ y u i 5 5 y $ $ 4 p 4 a s   9 0 d q X ",
"o f g h   r j $ $ $ k 5 5 l z z z z l 5 5 p x $ $ c v ; e b n m ",
"o M N B V C $ $ $ y l Z Z A S S S S A Z Z l x $ $ 4 D F ; G H J ",
"K L P I U $ $ $ 4 l Y S S T R R R R T S S Y E 4 $ 4 5 W r Q ! ~ ",
"~ ^ / ( $ $ $ 4 Z Y ) R R R R R R R R R R ) Y Z 4 4 5 x _ ` ' K ",
"J ] [ 4 $ $ 4 { R R R R R R R R R R R R R R R R { 4 5 i 5 } | - ",
"m  .5 4 $ 4 Z R R R R R R R R R R R R R R R R R R Z i i 5 $ ..; ",
"X.o.5 4 y l Y R R R R R R R R R R R R R R R R R R Y l O.y $ +.@.",
"#.$ y p l Y ) R R R R R R R R R R R R R R R R R R ) Y l k $ $ #.",
"$.$ k p Z S R R R R R R R R R R R R R R R R R R R R S Z 5 $ $ $.",
"$.$ k p Z S R R R R R R R R R R R R R R R R R R R R S Z 5 $ $ $.",
"%.$ y l A T R R R R R R R R R R R R R R R R R R R R T A l y $ &.",
"$ $ 5 z S R R R R R R R R R R R R R R R R R R R R R R S z 5 $ $ ",
"$ $ 5 z S R R R R R R R R R R R R R R R R R R R R R R S z 5 $ $ ",
"% $ 5 z S R R R R R R R R R R R R R R R R R R R R R R S z 5 $ $ ",
"% $ 5 z S R R R R R R R R R R R R R R R R R R R R R R S z 5 $ $ ",
"*.y 5 z S R R R R R R R R R R R R R R R R R R R R R R S z 5 $ $ ",
"=.4 5 z S R R R R R R R R R R R R R R R R R R R R R R S z 5 $ $ ",
"& 4 5 z S R R R R R R R R R R R R R R R R R R R R R R S z 5 $ $ ",
"& 4 5 z S R R R R R R R R R R R R R R R R R R R R R R S z 5 $ -.",
"& 4 5 z S R R R R R R R R R R R R R R R R R R R R R R S z 5 O.;.",
"& 4 5 z S R R R R R R R R R R R R R R R R R R R R R R S z 5 4 :.",
">.i i z S R R R R R R R R R R R R R R R R R R R R R R S z 5 4 >.",
"$ 5 i z S R R R R R R R R R R R R R R R R R R R R R R S z i 5 $ ",
"$ 5 i z S R R R R R R R R R R R R R R R R R R R R R R S z i p ,.",
"$ y u z S R R R R R R R R R R R R R R R R R R R R R R S z u x & ",
"$ $ 5 z S R R R R R R R R R R R R R R R R R R R R R R S z 5 4 & ",
"$ $ 5 z S R R R R R R R R R R R R R R R R R R R R R R S z 5 4 =.",
"$ $ 5 z S R R R R R R R R R R R R R R R R R R R R R R S z 5 y & ",
"$ $ <.1.2.R R R R R R R R R R R R R R R R R R R R R R 2.1.<.$ $ "
};
