/* XPM */
static char *b9e6c787202243bd89f35f6116fbe95cKdXN89mA27szN1VZ[] = {
/* columns rows colors chars-per-pixel */
"32 32 158 2 ",
"   c #C6AD8C",
".  c #B6A281",
"X  c #BDA786",
"o  c #AD9C7B",
"O  c #C7B695",
"+  c #D0BD9C",
"@  c #B09E7D",
"#  c #C3AB8A",
"$  c #B19E7D",
"%  c #B8A483",
"&  c #C4AC8B",
"*  c #C2AB8A",
"=  c #BEA988",
"-  c #C5B493",
";  c #CAB695",
":  c #CAB392",
">  c #C0A988",
",  c #BAA584",
"<  c #BAA685",
"1  c #CDB998",
"2  c #BEA786",
"3  c #C5AC8B",
"4  c #C1A888",
"5  c #A28C70",
"6  c #AD9879",
"7  c #BCA685",
"8  c #B3A07F",
"9  c #C8B08F",
"0  c #D4C3A2",
"q  c #D0BC9B",
"w  c #CCB695",
"e  c #CBB594",
"r  c #C7AE8D",
"t  c #A18D70",
"y  c #BBA584",
"u  c #C5AD8C",
"i  c #C7AF8E",
"p  c #D0BE9D",
"a  c #D1C1A0",
"s  c #382020",
"d  c #B7A382",
"f  c #D1BE9D",
"g  c #A08B6F",
"h  c #9E886D",
"j  c #AA9878",
"k  c #AF9D7C",
"l  c #BEAC8B",
"z  c #D2C09F",
"x  c #B5A382",
"c  c #B2A180",
"v  c #706040",
"b  c black",
"n  c #CFBB9A",
"m  c #B39F7F",
"M  c #A38F71",
"N  c #977F66",
"B  c #9D876C",
"V  c #A79475",
"C  c #BCAC8B",
"Z  c #504030",
"A  c #CCB796",
"S  c #AD9679",
"D  c #947B63",
"F  c #9E886C",
"G  c #B19E7F",
"H  c #CBB695",
"J  c #C8B190",
"K  c #BAA586",
"L  c #957D64",
"P  c #9C866B",
"I  c #AF9D7D",
"U  c #CCBC9B",
"Y  c #CDB897",
"T  c #CDB796",
"R  c #C5AE8D",
"E  c #CCB998",
"W  c #9A8369",
"Q  c #D5C4A3",
"!  c #CFBC9B",
"~  c #B1A07F",
"^  c #B8A584",
"/  c #AA9478",
"(  c #A68D72",
")  c #9F886D",
"_  c #AB9778",
"`  c #A78E72",
"'  c #A49072",
"]  c #9F8A6E",
"[  c #A59173",
"{  c #947C63",
"}  c #B84828",
"|  c #B19F7E",
" . c #B1A180",
".. c #AE9D7C",
"X. c #AC9A7A",
"o. c #F8F8F8",
"O. c #C8B392",
"+. c #B8C0D0",
"@. c #CEBA99",
"#. c #CAB493",
"$. c #BFA988",
"%. c #AB9979",
"&. c #E87040",
"*. c #B9A483",
"=. c #D09870",
"-. c #A99778",
";. c #A79374",
":. c #BAA483",
">. c #F8D0B8",
",. c #A79176",
"<. c #AD977C",
"1. c #B19B7F",
"2. c #C8B292",
"3. c #CFBA99",
"4. c #998067",
"5. c #B8A181",
"6. c #C3B08F",
"7. c #C9B695",
"8. c #967E65",
"9. c #B9A787",
"0. c #A89073",
"q. c #282850",
"w. c #B5A281",
"e. c #AD9B7B",
"r. c #A28D70",
"t. c #A18C70",
"y. c #A18A6E",
"u. c #988066",
"i. c #3858C8",
"p. c #204080",
"a. c #AF9B7C",
"s. c #AF9679",
"d. c #987F66",
"f. c #BDAC8B",
"g. c #A38F72",
"h. c #BCAA89",
"j. c #989898",
"k. c #BFAA89",
"l. c #C6B695",
"z. c #D5C5A4",
"x. c #D6C6A5",
"c. c #C2A989",
"v. c #C0A787",
"b. c #C2AA89",
"n. c #B7A685",
"m. c #D2C1A0",
"M. c #A89375",
"N. c #9D856B",
"B. c #AD9B7A",
"V. c #AF9E7D",
"C. c #BAAA89",
"Z. c #C2B08F",
"A. c #C0AC8B",
"S. c #AD997C",
"D. c #BFAB8D",
"F. c #CAB594",
"G. c #9C846B",
"H. c #CEBD9D",
/* pixels */
"  . .       X o o O +     . .               X @ #     # @ X     ",
". $ $ % &   * = - ; :     > , < 1 :         * 2 3     4 5 6 7   ",
"o 8 . % &     9 0 q w e r > , < 1 1 w e r             4 5 t 6 X ",
"o y u 9       i p a a p i s d & i f s s s s       i i # 8 g h j ",
"o k l z 9     & x c c x s v s x s s v v v b       n n   # m M N ",
"B V C 0 9     3 2 X X 2 s Z v s Z v v Z b z A i n 1 :     > S D ",
"D F G O H J         s s Z s Z s v v s b s s A 9 0 w J e r : K B ",
"N L P I U H i   s s Z Z v v Z Z Z Z v v Z Z s s 0 Y T z R E - @ ",
"j P L W I O n b s Z Z v v v v v v v v v v Z Z s b Q ! R 8 ~ ^ # ",
"B t F L P G b Z Z Z b s Z v v v v v v Z s b Z Z Z b / ( ) V _ ` ",
"B V ' D D F G O b s Z Z Z Z Z Z Z Z Z Z Z Z s b ] B B B B V V B ",
"o o [ N { D P b Z Z Z Z s Z } } } } Z s Z Z Z Z b @ |  ...o o o ",
"o o X.V N D s s Z Z Z s } } } o.o.} } } s Z Z Z s s O.U  .o o o ",
"o o o j N D b Z Z Z s } } } +.v s +.} } } s Z Z Z b @.#.$.8 8 X ",
"o o o %.] b Z Z Z Z b } } &.&.+.+.&.&.} } b Z Z Z Z b 3 2 *.*.X ",
"o k @ @ o o ' s s =.Z b &.&.&.&.&.&.&.&.b Z =.s s H 9 R x $.2 @ ",
"o y # > @ o ' N s =.s =.o.b Z Z Z Z b o.=.s =.s I O 0 0 a #.3 # ",
"X * > d 7 8 -.;.:.Z b >.o.b >.>.>.>.b o.>.b Z L P ,.<.1.2.3.A   ",
"X * > d 7 8 o k y Z s s >.>.>.>.>.>.>.>.s s Z P L D D 4.5.6.7.w ",
"c $.  # 8 X.%.o o s o b b =.>.=.=.>.=.b b ..s j W N 8.N V j 9.a ",
"a #.    # 0.] o o o o o q.b b Z Z b b q.# w.o e.j j r.{ N N t.c ",
"C 7.A & % y.u.] %.o o b q.i.+.q.q.p.i.b b > d o o o a.s.d.D B o ",
"o f.6.y k g.B ] %.o b =.q.p.i.+.o.i.q.>.>.b , w...8 7 4 5 u.W ' ",
"j j j j j X.o o o k s >.>.q.i.p.o.o.q.>.>.b . # 8 2   # @ ] 8.D ",
"N N N N N [ o o o y s >.=.b i.p.p.o.o.b b o .   # 3   # @ %.r.D ",
"' ' ' ' ' -.8 = - h.h.b b j.p.p.p.p.j.q.k d , % &     3 2 8 -.' ",
". $ o ..w.. k.Y Q l.l.q.j.j.j.j.j.j.j.j.q.> > % &     3 2 8 o o ",
"  % k @ > # O.a z.x.x.b i.j.j.b b j.j.i.b & c.v.b.3   # 8 ..o o ",
"  & y o @ @ | n.m.x.x.b q.q.b 0 x.b q.q.b % M.N.B.2     # w.o o ",
"    * y k o o V.C.C Z.b } } b w w b } } b $ ' L P 6 A.n i > X X ",
"  > X 7 d . 8 o o o 8 = b b + 3 2 6.b b d $ V P L F S.D.F.J     ",
"  . o @ #   X o o o o o o O + # @ o o @ # . o j N D D G.H.w     "
};
