/* XPM */
static char *_299ac0259ab4057c06abef5de944d1f7NqGT0OW2bQ2YPfJ[] = {
/* columns rows colors chars-per-pixel */
"32 32 185 2 ",
"   c #C6AD8C",
".  c #B6A281",
"X  c #BDA786",
"o  c #AD9C7B",
"O  c #C7B695",
"+  c #D0BD9C",
"@  c #B09E7D",
"#  c #C3AB8A",
"$  c #B19E7D",
"%  c #B8A483",
"&  c #C4AC8B",
"*  c #C2AB8A",
"=  c #BEA988",
"-  c #C5B493",
";  c #CAB695",
":  c #CAB392",
">  c #C0A988",
",  c #BAA584",
"<  c #BAA685",
"1  c #CDB998",
"2  c #BEA786",
"3  c #C5AC8B",
"4  c #C1A888",
"5  c #A28C70",
"6  c #AD9879",
"7  c #BCA685",
"8  c #B3A07F",
"9  c #C8B08F",
"0  c #D4C3A2",
"q  c #D0BC9B",
"w  c #CCB695",
"e  c #CBB594",
"r  c #C7AE8D",
"t  c #A18D70",
"y  c #BBA584",
"u  c #C5AD8C",
"i  c #C7AF8E",
"p  c #D0BE9D",
"a  c #D1C1A0",
"s  c #B7A382",
"d  c #D1BE9D",
"f  c #D6C6A5",
"g  c #A08B6F",
"h  c #9E886D",
"j  c #AA9878",
"k  c #AF9D7C",
"l  c #BEAC8B",
"z  c #D2C09F",
"x  c #B5A382",
"c  c #B2A180",
"v  c #D5C5A4",
"b  c #CFBB9A",
"n  c #B39F7F",
"m  c #A38F71",
"M  c #977F66",
"N  c #9D876C",
"B  c #A79475",
"V  c #BCAC8B",
"C  c #BCAB8A",
"Z  c #B39F81",
"A  c #AD977C",
"S  c #B29D81",
"D  c #D1C0A0",
"F  c #CCB796",
"G  c #AD9679",
"H  c #947B63",
"J  c #9E886C",
"K  c #B19E7F",
"L  c #CBB695",
"P  c #C8B190",
"I  c #AD9578",
"U  c #A38B70",
"Y  c #A18C70",
"T  c #B9A688",
"R  c #C9B696",
"E  c #BAA586",
"W  c #957D64",
"Q  c #9C866B",
"!  c #AF9D7D",
"~  c #CCBC9B",
"^  c #9A8369",
"/  c #B1987B",
"(  c #C3AA8A",
")  c #CDB897",
"_  c #CDB796",
"`  c #C5AE8D",
"'  c #CCB998",
"]  c #AD9B7B",
"[  c #A08A6E",
"{  c #B09A7E",
"}  c #D5C4A3",
"|  c #CFBC9B",
" . c #B1A07F",
".. c #B8A584",
"X. c #C4B291",
"o. c #D4C2A1",
"O. c #AD9A7B",
"+. c #BAA989",
"@. c #AF9A7E",
"#. c #AA9478",
"$. c #A68D72",
"%. c #9F886D",
"&. c #AB9778",
"*. c #A78E72",
"=. c #A49072",
"-. c #D0C09F",
";. c #AB9979",
":. c #9F8A6E",
">. c #A59173",
",. c #947C63",
"<. c #C0AF8F",
"1. c #CEBD9D",
"2. c #D4C4A3",
"3. c #B19F7E",
"4. c #B1A180",
"5. c #AE9D7C",
"6. c #AC9A7A",
"7. c #9A8269",
"8. c #9C846B",
"9. c #9F886E",
"0. c #AF9E7E",
"q. c #C9B897",
"w. c #C8B392",
"e. c #A79176",
"r. c #A99074",
"t. c #B4A07F",
"y. c #CAB998",
"u. c #C0AC8B",
"i. c #CEBA99",
"p. c #CAB493",
"a. c #BFA988",
"s. c #967E65",
"d. c #A28D70",
"f. c #B4A082",
"g. c #BDAA8C",
"h. c #BCA88A",
"j. c #B49C7F",
"k. c #A99476",
"l. c #B9A483",
"z. c #9B8369",
"x. c #A99778",
"c. c #A79374",
"v. c #BAA483",
"b. c #A38F72",
"n. c #B19B7F",
"m. c #C8B292",
"M. c #CFBA99",
"N. c #998067",
"B. c #B8A181",
"V. c #C3B08F",
"C. c #C9B695",
"Z. c #B9A787",
"A. c #A89073",
"S. c #B5A281",
"D. c #A18A6E",
"F. c #988066",
"G. c #AF9B7C",
"H. c #AF9679",
"J. c #987F66",
"K. c #BDAC8B",
"L. c #BCAA89",
"P. c #C7B594",
"I. c #C6AE8D",
"U. c #BFAA89",
"Y. c #C6B695",
"T. c #CEB998",
"R. c #C9B493",
"E. c #B9A584",
"W. c #D3C2A1",
"Q. c #CFBE9D",
"!. c #C2A989",
"~. c #C0A787",
"^. c #C2AA89",
"/. c #B7A685",
"(. c #D2C1A0",
"). c #C0AB8A",
"_. c #A89375",
"`. c #9D856B",
"'. c #AD9B7A",
"]. c #AF9E7D",
"[. c #BAAA89",
"{. c #C2B08F",
"}. c #AD997C",
"|. c #BFAB8D",
" X c #CAB594",
/* pixels */
"  . .       X o o O +     . .               X @ #     # @ X     ",
". $ $ % &   * = - ; :     > , < 1 :         * 2 3     4 5 6 7   ",
"o 8 . % &     9 0 q w e r > , < 1 1 w e r             4 5 t 6 X ",
"o y u 9       i p a a p i % s & i d f 0 : r       i i # 8 g h j ",
"o k l z 9     & x c c x & & 7 x p v f f 0 e       b b   # n m M ",
"N B V 0 9     3 2 X X 2 3   * X C Z A S D z F i b 1 :     > G H ",
"H J K O L P                   & % I U Y T R F 9 0 w P e r : E N ",
"M W Q ! ~ L i   9 9 i               X j ^ / ( : 0 ) _ z ` ' - @ ",
"j Q W ^ ! O b 9 z 0 b               X ] j [ { 0 f } | ` 8  ...# ",
"N t J W Q K X.d v f o.b i           * X X 6 O.+.@.A #.$.%.B &.*.",
"N B =.H H J K O O -.f } ) w : r e P       7 8 ;.:.N N N N B B N ",
"o o >.M ,.H Q j j <.1.1.-.2.+ 9 z F i       2 @ @ @ 3.4.5.o o o ",
"o o 6.B M H W M M 7.8.9.0.q.+   9 q b       3 # # # w.~ 4.o o o ",
"o o o j M H H H H H H W Q e.#.r.t.y.o.b i 7 u.+ + + i.p.a.8 8 X ",
"o o o ;.:.N ^ H H H H H H H H s.d.f.g.h.j.k.K q.2.z F 3 2 l.l.X ",
"o k @ @ o o =.,.M W H H H s.M M M M M M M W Q ! ~ L 9 ` x a.2 @ ",
"o y # > @ o =.M B Q H H H d.j j j j j j j Q W z.! O 0 0 a p.3 # ",
"X * > s 7 8 x.c.v.6 =.d.s.^ b.o o o o o o N H W Q e.A n.m.M.F   ",
"X * > s 7 8 o k y 8 o ;.:.N [ >.6.o o o o b.N Q W H H N.B.V.C.w ",
"c a.  # 8 6.;.o o o o o o o >.^ j o 5.@ @ 5.o j ^ M s.M B j Z.a ",
"a p.    # A.:.o o o o o o o 6.j ] o S.# # S.o ] j j d.,.M M Y c ",
"V C.F & % D.F.:.;.o o o o o o o o o .     > s o o o G.H.J.H N o ",
"o K.V.y k b.N :.;.o o o o 8 . S.5.o 8 X X X , S.5.8 7 4 5 F.^ =.",
"j j j j j 6.o o o k k o @ 2   # 8 5.o o o o . # 8 2   # @ :.s.H ",
"M M M M M >.o o o y y @ > 3     # S.o o o o .   # 3   # @ ;.d.H ",
"=.=.=.=.=.x.8 = - L.L.P.I.  : b i > X y k s , % &     3 2 8 x.=.",
". $ o 5.S.. U.) } Y.Y.} ) w T.| _ w w R.E.> > % &     3 2 8 o o ",
"  % k @ > # w.a v f f f f f d : 0 } W.Q.i & !.~.^.3   # 8 5.o o ",
"  & y o @ @ 3./.(.f f f f f v 0 f ) ).x & % _.`.'.2     # S.o o ",
"    * y k o o ].[.V {.) } f z w w M.R.7 s $ =.W Q 6 u.b i > X X ",
"  > X 7 s . 8 o o o 8 = - -.+ 3 2 V.V.7 s $ B Q W J }.|. XP     ",
"  . o @ #   X o o o o o o O + # @ o o @ # . o j M H H 8.1.w     "
};
