/* XPM */
static char *_74b6b87928b4d1cf73577c89e86200d3jDsytsvhCBwlNcz[] = {
/* columns rows colors chars-per-pixel */
"32 32 168 2 ",
"   c #643B3A",
".  c #796A16",
"X  c #7C6A1C",
"o  c #787215",
"O  c #6F5524",
"+  c #735A23",
"@  c #755D28",
"#  c #69423E",
"$  c #6F483D",
"%  c #7C5239",
"&  c #7F5E3D",
"*  c #7B672C",
"=  c #7E6B2C",
"-  c #7F7021",
";  c #7E6D30",
":  c #6D4641",
">  c #6E4842",
",  c #724D45",
"<  c #755246",
"1  c #7B5D41",
"2  c #765349",
"3  c #785648",
"4  c #7D5C4C",
"5  c #7F5E51",
"6  c #7E6044",
"7  c #837F09",
"8  c #827A11",
"9  c #82761D",
"0  c #807C1B",
"q  c #927E12",
"w  c #816C27",
"e  c #826E2E",
"r  c #88692A",
"t  c #94692D",
"y  c #837423",
"u  c #847E22",
"i  c #897F24",
"p  c #8A772E",
"a  c #8B792C",
"s  c #957A21",
"d  c #826D32",
"f  c #886E32",
"g  c #816738",
"h  c #836C3E",
"j  c #827232",
"k  c #8B7434",
"l  c #8E713E",
"z  c #8C7C3C",
"x  c #927B35",
"c  c #92753F",
"v  c #987039",
"b  c #917A39",
"n  c #805D40",
"m  c #836142",
"M  c #8E6F45",
"N  c #82624D",
"B  c #866D49",
"V  c #8A6C4E",
"C  c #936C40",
"Z  c #867042",
"A  c #8D7241",
"S  c #8C714D",
"D  c #907447",
"F  c #977D44",
"G  c #92754E",
"H  c #977A49",
"J  c #9A7E4B",
"K  c #826352",
"L  c #866956",
"P  c #886A56",
"I  c #8A6E59",
"U  c #8D725C",
"Y  c #987D54",
"T  c #90765F",
"R  c #947B5B",
"E  c #917760",
"W  c #947B63",
"Q  c #987E67",
"!  c #967B68",
"~  c #9A7E69",
"^  c #848401",
"/  c #8A8406",
"(  c #848B00",
")  c #8A8A07",
"_  c #84830A",
"`  c #8A8609",
"'  c #87890B",
"]  c #898B09",
"[  c #849200",
"{  c #899409",
"}  c #8E8A11",
"|  c #8C861C",
" . c #968511",
".. c #958817",
"X. c #91871C",
"o. c #938B1C",
"O. c #8E9011",
"+. c #93921B",
"@. c #A2851C",
"#. c #928523",
"$. c #958A25",
"%. c #9B8A23",
"&. c #92822E",
"*. c #9D8D2D",
"=. c #9C922C",
"-. c #9C8A32",
";. c #A48620",
":. c #AE8628",
">. c #A78A2C",
",. c #AC8A2F",
"<. c #B4862D",
"1. c #A08F32",
"2. c #B08E3E",
"3. c #A39139",
"4. c #A9903D",
"5. c #9A854E",
"6. c #9F884C",
"7. c #9B8454",
"8. c #9A815D",
"9. c #A78F47",
"0. c #A2874B",
"q. c #A99242",
"w. c #AD944A",
"e. c #988067",
"r. c #9B846A",
"t. c #9F896D",
"y. c #A18B6F",
"u. c #A28D71",
"i. c #A88F74",
"p. c #A98F7A",
"a. c #A69274",
"s. c #A89476",
"d. c #AB967A",
"f. c #AD9B7B",
"g. c #B19D7E",
"h. c #B3A07F",
"j. c #B29D81",
"k. c #B4A282",
"l. c #BCA685",
"z. c #BAA887",
"x. c #BAA789",
"c. c #BFAD8E",
"v. c #BFAE8D",
"b. c #BCA98B",
"n. c #C1A989",
"m. c #C3AB8A",
"M. c #C5AC8B",
"N. c #C1AF8E",
"B. c #C7AF8E",
"V. c #C6AE8D",
"C. c #C4AC8B",
"Z. c #C2B08F",
"A. c #C0B08F",
"S. c #C7B495",
"D. c #C3B292",
"F. c #CBB695",
"G. c #C9B697",
"H. c #C9B695",
"J. c #CBB695",
"K. c #CBB899",
"L. c #CEBB9A",
"P. c #CEBD9D",
"I. c #CFBE9D",
"U. c #CDBB9B",
"Y. c #D0BE9D",
"T. c #D0C09F",
"R. c #D1C1A0",
"E. c #D1C1A0",
/* pixels */
"[ ( ^ ` q.o.^ ^ ^ ( ( ^ ^ ^ o.q.{ ( ^ ^ ^ ^ o.q.{ ( ^ ^ ^ ^ o.w.",
"( ^ } 1.w.3.o.^ ^ 9 * O O a x & ; z z z d @ r ,.) o.o.^ ^ ^ ) +.",
"o.o.$.*.*.=.$.9 i Z 4 ,   n n # ! i.s.r.L < % t 9 #.%. .o.` ( [ ",
"q.q.*.^ ` ] u 4 E W Q E , # # , b.K.b.u.r.I 2 # 3 - q :.4...( [ ",
"` ;.@.` 3.q.F 4 E W r.s.a.Q L 3 L L 4 2 u.s.Q 3 U < + / ` ^ ( [ ",
"^ ` ` _ A Y R P 3 E u.t.t.e.T I I I K 2 e.t.T 4 K U S = _ ( O.=.",
"( ^ ` #.6 I e.Q , U u.t.d.t.r.i.d.d.r.K s.u.W K 4 r.r.1 y _ } *.",
"[ ( X.0.N U t.u.K U y.k.Y.f.a.V.P.R.j.P F.v.s.W 4 r.r.K 4 y / ^ ",
"^ ^ 9 N U y.r.K U y.g.M.V.k.f.g.k.k.s.Q m.K.D.a.K r.d.a.W 6.=.[ ",
"^ o.b N t.d.r.N t.z.N.k.k.g.h.l.l.h.d.s.h.z.Z.v.E Q u.s.I V a ( ",
"^ &.G I k.f.W K k.F.Z.f.f.f.h.l.M.l.h.f.k.g.b.P.r.U e.s.I 4 = ^ ",
"^ = L t.P.d.I P S.F.l.d.f.f.f.g.m.V.l.g.m.l.v.K.t.L U s.r.L d ` ",
"^ = U f.T.t.L Q f.S.b.r.d.l.l.g.m.V.l.g.m.K.S.h.d.U L r.s.r.7.q.",
"^ s C K ~ E W a.f.~ ! s.D.b.l.l.M.J.k.E g.g.f.d.t.r.E L U 5 g o.",
"o.>.v > 3 L e.f.a.4 5 k.R.k.g.J.J.F.d.N t.r.t.d.Q t.W 4 U , O ^ ",
"q.9.J K 4 4 U s.W 2 K k.U.d.d.T.P.k.e.4 E Q t.s.Q W U L s.K + ^ ",
"` d U a.W K L W K 3 U f.k.t.t.f.t.r.U 4 E u.u.Q W W r.s.f.U * ^ ",
"^ = Q D.s.W U E 4 3 U d.t.u.u.r.Q W I 4 E a.a.E L K t.D.g.u.7.*.",
"^ j r.b.b.t.I P < 3 I t.L t.y.U E W I 4 I W E K 4 K r.x.s.t.8.J ",
"^ z E r.S.~ 4 K   < P E : E e.4 E E P 3 3 4 <   3 E Q E E L 4 3 ",
"[ j L Q r.L ~ b., K r.a.4 U U 4 E L < # 3 I K # I k.g.4 4 I I 3 ",
"( &.G K 2 K t.z.d.k.j.r.U L K 4 K E u.p.r.Q L 3 t.k.t.> 3 K h 9 ",
"^ o.b 3   P u.f.z.D.k.W W 4 , 2 Q g.Z.D.s.r.I K s.s.U : , N p ^ ",
"^ / 9 1 # E d.s.Q u.u.E U ,   , D.R.D.s.Q W I K a.r.U 4 $ c *.` ",
"^ *.*.8 1 U Q Q W Q Q U >     : s.k.s.Q W W I 4 W Q E R 0.#.o.q.",
"*.$.} 7 1 I W E L U W U #     # Q s.a.E L U I 4 E I I R $.` o.w.",
"w.o.( _ = B I I 4 L I L #     # L y.a.E 4 5 4 < P K P 5.' ^ ..2.",
"q.+.( ^ ^ e 4 3 3 3 3 <         3 e.u.E 4 #     3 3 M 3.{ (  .<.",
"` ^ ( [ ^ *.H 3 # , ,           3 U Q E 4 #     3 3 d ) [ ( o.q.",
"( o.+.[ ^ } | 0 . k H l X . w M 4 K K K > m f X F a 8 ^ ( ( ] o.",
"( o.o.( ^ ( ( ( ^ o.=.=./ ( } -.D N 3 3   k o.` q.o.^ ^ ( [ ( ^ ",
"^ ^ ^ ^ ^ ( ( ^ ^ ^ ( [ ^ ( ( ` q.S 3 3   o ( ` q.o.^ ^ [ [ ( ^ "
};
